<?xml version="1.0" encoding="UTF-8" standalone="no"?>
<svg
   xmlns:dc="http://purl.org/dc/elements/1.1/"
   xmlns:cc="http://creativecommons.org/ns#"
   xmlns:rdf="http://www.w3.org/1999/02/22-rdf-syntax-ns#"
   xmlns:svg="http://www.w3.org/2000/svg"
   xmlns="http://www.w3.org/2000/svg"
   xmlns:xlink="http://www.w3.org/1999/xlink"
   id="SVGRoot"
   version="1.1"
   viewBox="0 0 256 256"
   height="256px"
   width="256px">
  <defs
     id="defs815">
    <linearGradient
       id="linearGradient2994">
      <stop
         id="stop2990"
         offset="0"
         style="stop-color:#ffcc00;stop-opacity:1;" />
      <stop
         id="stop2992"
         offset="1"
         style="stop-color:#ffcc00;stop-opacity:0;" />
    </linearGradient>
    <linearGradient
       y2="169.98243"
       x2="165.36483"
       y1="169.98243"
       x1="70.473585"
       gradientUnits="userSpaceOnUse"
       id="linearGradient3002"
       xlink:href="#linearGradient2994" />
  </defs>
  <metadata
     id="metadata818">
    <rdf:RDF>
      <cc:Work
         rdf:about="">
        <dc:format>image/svg+xml</dc:format>
        <dc:type
           rdf:resource="http://purl.org/dc/dcmitype/StillImage" />
        <dc:title></dc:title>
      </cc:Work>
    </rdf:RDF>
  </metadata>
  <g
     id="layer1">
    <rect
       y="0.38089636"
       x="0.35355338"
       height="257.03333"
       width="257.03333"
       id="rect823"
       style="fill:#ffffff;fill-opacity:1;fill-rule:nonzero;stroke:none;stroke-width:1.88976383;stroke-linecap:round;stroke-linejoin:round;stroke-miterlimit:4;stroke-dasharray:none" />
    <path
       transform="matrix(1.5704661,0,0,1.5764641,-57.442721,-162.20775)"
       id="path1521"
       d="m 71.417785,187.41064 c 0.846779,-11.77913 6.374374,-23.15741 15.110364,-31.10394 8.735991,-7.94654 20.585411,-12.37494 32.391871,-12.10559 11.80645,0.26935 23.4416,5.23352 31.80611,13.57018 8.36451,8.33666 13.36746,19.95518 13.67619,31.76067 0.0617,2.36144 -0.0566,4.72757 -0.35355,7.07107"
       style="fill:none;stroke:url(#linearGradient3002);stroke-width:1.89327347;stroke-linecap:butt;stroke-linejoin:miter;stroke-miterlimit:4;stroke-dasharray:none;stroke-opacity:1" />
    <path
       id="path1499"
       d="M 201.29931,46.292551 V 136.581"
       style="fill:none;stroke:#000000;stroke-width:2.97899437;stroke-linecap:butt;stroke-linejoin:miter;stroke-miterlimit:4;stroke-dasharray:none;stroke-opacity:1" />
    <path
       transform="matrix(1.5763845,0,0,1.5763845,-57.861941,-162.19423)"
       id="path1505"
       d="m 164.40232,189.53196 c -0.27365,11.9949 -5.40579,23.8092 -13.98588,32.19578 -8.58009,8.38657 -20.50837,13.24792 -32.50639,13.24792 -11.99802,0 -23.9263,-4.86135 -32.506386,-13.24792 -8.580087,-8.38658 -13.712231,-20.20088 -13.985879,-32.19578 -0.01613,-0.70698 -0.01613,-1.41434 0,-2.12132"
       style="fill:none;stroke:#000000;stroke-width:1.88999999;stroke-linecap:butt;stroke-linejoin:miter;stroke-miterlimit:4;stroke-dasharray:none;stroke-opacity:1" />
    <circle
       r="30.413015"
       cy="135.70682"
       cx="128"
       id="path3023"
       style="fill:#cc0000;fill-opacity:1;fill-rule:nonzero;stroke:none;stroke-width:3.75866055;stroke-linecap:round;stroke-linejoin:round;stroke-miterlimit:4;stroke-dasharray:none" />
  </g>
</svg>
